<?xml version="1.0" encoding="utf-8"?>
<!-- Generator: Adobe Illustrator 22.1.0, SVG Export Plug-In . SVG Version: 6.00 Build 0)  -->
<svg version="1.1" xmlns="http://www.w3.org/2000/svg" xmlns:xlink="http://www.w3.org/1999/xlink" x="0px" y="0px"
	 viewBox="0 0 256 128" style="enable-background:new 0 0 256 128;" xml:space="preserve">
<style type="text/css">
	.st0{fill:#FFED6C;}
	.st1{fill:#F16EFF;}
</style>
<g id="Layer_2">
	<polygon class="st0" points="220.9,25.9 128,6.3 128,6.3 128,6.3 128,6.3 128,6.3 35.1,25.9 35.1,98.5 128,118.3 128,118.3 
		128,118.3 128,118.3 128,118.3 220.9,98.5 	"/>
</g>
<g id="Layer_1">
	<g>
		<path class="st1" d="M75,70.5l10,2.1v0.8c0,1.8-0.2,3.4-0.6,4.7c-0.4,1.2-1.1,2.3-2.1,3.2c-2.2,2-5.1,2.7-8.5,2
			c-3.4-0.7-6.3-2.6-8.7-5.5c-2.4-3-3.6-6.2-3.6-9.6c0-3.5,1.2-6.2,3.7-8.1c2.4-1.9,5.4-2.5,8.9-1.8c1.9,0.4,3.6,1.2,5.3,2.3
			c1.6,1.1,3.1,2.7,4.6,4.7l-2.6,1.9c-2-3.1-4.4-4.9-7.2-5.5c-2.6-0.5-4.7-0.1-6.4,1.3c-1.7,1.4-2.6,3.3-2.6,5.9
			c0,2.7,1,5.1,2.9,7.3c1.8,2,3.8,3.2,5.9,3.7c1.8,0.4,3.4,0.1,4.8-0.8c1.4-0.9,2.2-2.2,2.4-3.9l-6-1.3V70.5z"/>
		<path class="st1" d="M88.3,64.4c0-0.6,0.2-1.1,0.7-1.5c0.4-0.4,1-0.5,1.6-0.3c0.6,0.1,1.2,0.5,1.6,1c0.4,0.5,0.7,1.1,0.7,1.8
			c0,0.6-0.2,1.1-0.7,1.5c-0.4,0.4-1,0.5-1.6,0.3c-0.6-0.1-1.2-0.5-1.6-1C88.5,65.6,88.3,65,88.3,64.4z M92.4,71.6v15.2L88.8,86
			V70.8L92.4,71.6z"/>
		<path class="st1" d="M100.4,76.6v11.9l-3.5-0.8V75.8l-1.2-0.3v-3.3l1.2,0.3v-5.9c0-1.9,0.3-3.2,1-3.8c0.9-0.9,2.3-1.2,4-0.8
			c0.6,0.1,1.4,0.5,2.4,1v3.6l-0.4-0.3c-0.8-0.5-1.4-0.9-1.9-1c-0.6-0.1-1,0-1.3,0.4c-0.2,0.4-0.3,1.2-0.3,2.5v5l3.8,0.8v3.3
			L100.4,76.6z"/>
	</g>
	<g>
		<path class="st1" d="M156,63.6v4.3c-2.1-1.3-4.3-1.7-6.5-1.3c-2.5,0.5-4.6,1.9-6.3,4c-1.7,2.1-2.6,4.5-2.6,7
			c0,2.5,0.9,4.5,2.6,5.9c1.7,1.4,3.8,1.8,6.3,1.3c1.3-0.3,2.4-0.7,3.3-1.3c0.5-0.3,1-0.7,1.6-1.2c0.5-0.5,1.1-1,1.7-1.6v4.4
			c-2.1,1.6-4.3,2.7-6.6,3.2c-3.4,0.7-6.4,0.2-8.8-1.7c-2.4-1.9-3.6-4.6-3.6-8c0-3.1,1-6,3-8.9c2.5-3.5,5.7-5.6,9.7-6.5
			C151.9,62.7,154,62.8,156,63.6z"/>
		<path class="st1" d="M163.5,69.6v8.7c0,2.5,1,3.6,3,3.1c2-0.4,3-1.9,3-4.4v-8.7l3.5-0.7v8.8c0,1.2-0.2,2.3-0.5,3.3
			c-0.3,0.9-0.8,1.7-1.5,2.5c-1.2,1.3-2.7,2.1-4.5,2.5c-1.8,0.4-3.3,0.2-4.5-0.6c-0.7-0.5-1.2-1.1-1.5-1.8c-0.3-0.6-0.4-1.7-0.4-3.1
			v-8.8L163.5,69.6z"/>
		<path class="st1" d="M180.9,54.7v12.9c1.4-1.8,3-2.8,4.8-3.2c2.1-0.4,3.8,0,5.1,1.2c1.4,1.2,2,3,2,5.3c0,2.3-0.7,4.4-2.1,6.3
			c-1.4,1.8-3.1,2.9-5.2,3.4c-1.8,0.4-3.3,0-4.7-1v1.6l-3.5,0.7V55.5L180.9,54.7z M189.3,71.9c0-1.5-0.4-2.6-1.2-3.3
			c-0.8-0.8-1.8-1-3-0.8c-1.3,0.3-2.3,1-3.2,2c-0.8,1.1-1.2,2.3-1.2,3.8c0,1.5,0.4,2.6,1.2,3.3c0.8,0.7,1.8,1,3.1,0.7
			c1.2-0.3,2.2-0.9,3-2C188.9,74.5,189.3,73.2,189.3,71.9z"/>
		<path class="st1" d="M210.5,68.1l-10.9,2.3c0.1,1.2,0.5,2.1,1.2,2.7c0.7,0.6,1.6,0.7,2.8,0.5c0.9-0.2,1.6-0.5,2.2-1.1
			c0.6-0.5,1.2-1.4,1.9-2.7l3,1c-0.5,0.9-0.9,1.7-1.5,2.3c-0.5,0.7-1.1,1.2-1.6,1.7c-0.6,0.5-1.2,0.9-1.9,1.2
			c-0.7,0.3-1.4,0.5-2.2,0.7c-2.3,0.5-4.1,0.1-5.5-1c-1.4-1.2-2.1-3-2.1-5.4c0-2.4,0.7-4.5,2-6.3c1.3-1.8,3.1-2.9,5.3-3.3
			c2.2-0.5,4-0.1,5.3,1c1.3,1.1,1.9,3,1.9,5.5L210.5,68.1z M206.8,66c-0.5-1.8-1.7-2.5-3.5-2.1c-0.4,0.1-0.8,0.2-1.2,0.5
			c-0.4,0.2-0.7,0.5-1,0.8c-0.3,0.3-0.6,0.7-0.8,1c-0.2,0.4-0.4,0.8-0.5,1.3L206.8,66z"/>
	</g>
</g>
</svg>
